%TF.GenerationSoftware,KiCad,Pcbnew,9.0.5*%
%TF.CreationDate,2026-07-29T03:31:47-05:00*%
%TF.ProjectId,Ball_Tracking_Robot_Controller,42616c6c-5f54-4726-9163-6b696e675f52,rev?*%
%TF.SameCoordinates,Original*%
%TF.FileFunction,Paste,Top*%
%TF.FilePolarity,Positive*%
%FSLAX46Y46*%
G04 Gerber Fmt 4.6, Leading zero omitted, Abs format (unit mm)*
G04 Created by KiCad (PCBNEW 9.0.5) date 2026-07-29 03:31:47*
%MOMM*%
%LPD*%
G01*
G04 APERTURE LIST*
G04 Aperture macros list*
%AMRoundRect*
0 Rectangle with rounded corners*
0 $1 Rounding radius*
0 $2 $3 $4 $5 $6 $7 $8 $9 X,Y pos of 4 corners*
0 Add a 4 corners polygon primitive as box body*
4,1,4,$2,$3,$4,$5,$6,$7,$8,$9,$2,$3,0*
0 Add four circle primitives for the rounded corners*
1,1,$1+$1,$2,$3*
1,1,$1+$1,$4,$5*
1,1,$1+$1,$6,$7*
1,1,$1+$1,$8,$9*
0 Add four rect primitives between the rounded corners*
20,1,$1+$1,$2,$3,$4,$5,0*
20,1,$1+$1,$4,$5,$6,$7,0*
20,1,$1+$1,$6,$7,$8,$9,0*
20,1,$1+$1,$8,$9,$2,$3,0*%
G04 Aperture macros list end*
%ADD10RoundRect,0.250000X-0.250000X-0.475000X0.250000X-0.475000X0.250000X0.475000X-0.250000X0.475000X0*%
%ADD11RoundRect,0.250000X-0.262500X-0.450000X0.262500X-0.450000X0.262500X0.450000X-0.262500X0.450000X0*%
%ADD12RoundRect,0.250000X1.100000X-0.325000X1.100000X0.325000X-1.100000X0.325000X-1.100000X-0.325000X0*%
%ADD13RoundRect,0.250000X0.650000X-1.000000X0.650000X1.000000X-0.650000X1.000000X-0.650000X-1.000000X0*%
%ADD14RoundRect,0.250000X-0.325000X-0.650000X0.325000X-0.650000X0.325000X0.650000X-0.325000X0.650000X0*%
%ADD15RoundRect,0.250000X-0.650000X1.000000X-0.650000X-1.000000X0.650000X-1.000000X0.650000X1.000000X0*%
%ADD16RoundRect,0.250000X0.475000X-0.250000X0.475000X0.250000X-0.475000X0.250000X-0.475000X-0.250000X0*%
%ADD17RoundRect,0.243750X0.243750X0.456250X-0.243750X0.456250X-0.243750X-0.456250X0.243750X-0.456250X0*%
%ADD18RoundRect,0.250000X0.250000X0.475000X-0.250000X0.475000X-0.250000X-0.475000X0.250000X-0.475000X0*%
%ADD19RoundRect,0.150000X-0.425000X0.150000X-0.425000X-0.150000X0.425000X-0.150000X0.425000X0.150000X0*%
%ADD20RoundRect,0.075000X-0.500000X0.075000X-0.500000X-0.075000X0.500000X-0.075000X0.500000X0.075000X0*%
%ADD21O,2.100000X1.000000*%
%ADD22O,1.800000X1.000000*%
%ADD23RoundRect,0.250000X0.375000X0.625000X-0.375000X0.625000X-0.375000X-0.625000X0.375000X-0.625000X0*%
%ADD24RoundRect,0.250000X0.400000X0.450000X-0.400000X0.450000X-0.400000X-0.450000X0.400000X-0.450000X0*%
%ADD25RoundRect,0.250000X-0.450000X0.262500X-0.450000X-0.262500X0.450000X-0.262500X0.450000X0.262500X0*%
%ADD26RoundRect,0.250000X0.262500X0.450000X-0.262500X0.450000X-0.262500X-0.450000X0.262500X-0.450000X0*%
%ADD27R,1.600000X1.400000*%
%ADD28RoundRect,0.250000X0.450000X-0.262500X0.450000X0.262500X-0.450000X0.262500X-0.450000X-0.262500X0*%
%ADD29RoundRect,0.250000X-0.370000X0.370000X-0.370000X-0.370000X0.370000X-0.370000X0.370000X0.370000X0*%
%ADD30RoundRect,0.050000X-0.050000X0.350000X-0.050000X-0.350000X0.050000X-0.350000X0.050000X0.350000X0*%
%ADD31RoundRect,0.050000X-0.350000X0.050000X-0.350000X-0.050000X0.350000X-0.050000X0.350000X0.050000X0*%
%ADD32RoundRect,0.150000X0.512500X0.150000X-0.512500X0.150000X-0.512500X-0.150000X0.512500X-0.150000X0*%
%ADD33RoundRect,0.100000X0.687500X0.100000X-0.687500X0.100000X-0.687500X-0.100000X0.687500X-0.100000X0*%
%ADD34RoundRect,0.250000X0.715000X0.695000X-0.715000X0.695000X-0.715000X-0.695000X0.715000X-0.695000X0*%
%ADD35RoundRect,0.250000X-0.475000X0.250000X-0.475000X-0.250000X0.475000X-0.250000X0.475000X0.250000X0*%
%ADD36RoundRect,0.250000X-1.412500X-0.550000X1.412500X-0.550000X1.412500X0.550000X-1.412500X0.550000X0*%
G04 APERTURE END LIST*
D10*
%TO.C,C17*%
X162950000Y-105000000D03*
X161050000Y-105000000D03*
%TD*%
%TO.C,C19*%
X161550000Y-90500000D03*
X163450000Y-90500000D03*
%TD*%
D11*
%TO.C,R14*%
X161087500Y-98000000D03*
X162912500Y-98000000D03*
%TD*%
%TO.C,R13*%
X161087500Y-101500000D03*
X162912500Y-101500000D03*
%TD*%
%TO.C,R12*%
X161587500Y-87000000D03*
X163412500Y-87000000D03*
%TD*%
%TO.C,R11*%
X161587500Y-83500000D03*
X163412500Y-83500000D03*
%TD*%
D10*
%TO.C,C20*%
X161550000Y-93000000D03*
X163450000Y-93000000D03*
%TD*%
%TO.C,C18*%
X161050000Y-107500000D03*
X162950000Y-107500000D03*
%TD*%
D12*
%TO.C,C12*%
X123000000Y-83500000D03*
X123000000Y-80550000D03*
%TD*%
D13*
%TO.C,D3*%
X142320000Y-81665000D03*
X142320000Y-77665000D03*
%TD*%
D14*
%TO.C,C16*%
X134720000Y-75665000D03*
X131770000Y-75665000D03*
%TD*%
D15*
%TO.C,D2*%
X142320000Y-86665000D03*
X142320000Y-90665000D03*
%TD*%
D10*
%TO.C,C13*%
X119870000Y-101665000D03*
X121770000Y-101665000D03*
%TD*%
%TO.C,C14*%
X141302500Y-105435000D03*
X143202500Y-105435000D03*
%TD*%
D16*
%TO.C,C15*%
X127500000Y-79025000D03*
X127500000Y-80925000D03*
%TD*%
D17*
%TO.C,D1*%
X123000000Y-93025000D03*
X124875000Y-93025000D03*
%TD*%
D18*
%TO.C,C11*%
X138720000Y-75665000D03*
X136820000Y-75665000D03*
%TD*%
D11*
%TO.C,R1*%
X121587500Y-86025000D03*
X123412500Y-86025000D03*
%TD*%
D19*
%TO.C,J1*%
X117575000Y-74645000D03*
X117575000Y-75445000D03*
D20*
X117575000Y-76595000D03*
X117575000Y-77595000D03*
X117575000Y-78095000D03*
X117575000Y-79095000D03*
D19*
X117575000Y-80245000D03*
X117575000Y-81045000D03*
X117575000Y-81045000D03*
X117575000Y-80245000D03*
D20*
X117575000Y-79595000D03*
X117575000Y-78595000D03*
X117575000Y-77095000D03*
X117575000Y-76095000D03*
D19*
X117575000Y-75445000D03*
X117575000Y-74645000D03*
D21*
X117000000Y-73525000D03*
D22*
X112820000Y-73525000D03*
D21*
X117000000Y-82165000D03*
D22*
X112820000Y-82165000D03*
%TD*%
D23*
%TO.C,F1*%
X114400000Y-89525000D03*
X111600000Y-89525000D03*
%TD*%
D24*
%TO.C,D4*%
X111050000Y-86025000D03*
X113950000Y-86025000D03*
%TD*%
D25*
%TO.C,R7*%
X125320000Y-99252500D03*
X125320000Y-101077500D03*
%TD*%
%TO.C,R6*%
X125320000Y-103752500D03*
X125320000Y-105577500D03*
%TD*%
D26*
%TO.C,R9*%
X121732500Y-107665000D03*
X119907500Y-107665000D03*
%TD*%
D27*
%TO.C,SW2*%
X146240000Y-102465000D03*
X153440000Y-102465000D03*
X146240000Y-105465000D03*
X153440000Y-105465000D03*
%TD*%
D11*
%TO.C,R3*%
X141427500Y-97465000D03*
X143252500Y-97465000D03*
%TD*%
D28*
%TO.C,R5*%
X127500000Y-83062500D03*
X127500000Y-84887500D03*
%TD*%
D11*
%TO.C,R4*%
X141427500Y-102935000D03*
X143252500Y-102935000D03*
%TD*%
%TO.C,R2*%
X120412500Y-93025000D03*
X118587500Y-93025000D03*
%TD*%
D26*
%TO.C,R8*%
X119907500Y-104665000D03*
X121732500Y-104665000D03*
%TD*%
%TO.C,R10*%
X118912500Y-86025000D03*
X117087500Y-86025000D03*
%TD*%
D27*
%TO.C,SW1*%
X146240000Y-96965000D03*
X153440000Y-96965000D03*
X146240000Y-99965000D03*
X153440000Y-99965000D03*
%TD*%
D29*
%TO.C,U2*%
X136900000Y-101935000D03*
X135370000Y-101935000D03*
X133840000Y-101935000D03*
X136900000Y-103465000D03*
X135370000Y-103465000D03*
X133840000Y-103465000D03*
X136900000Y-104995000D03*
X135370000Y-104995000D03*
X133840000Y-104995000D03*
D30*
X137570000Y-100515000D03*
X137170000Y-100515000D03*
X136770000Y-100515000D03*
X136370000Y-100515000D03*
X135970000Y-100515000D03*
X135570000Y-100515000D03*
X135170000Y-100515000D03*
X134770000Y-100515000D03*
X134370000Y-100515000D03*
X133970000Y-100515000D03*
X133570000Y-100515000D03*
X133170000Y-100515000D03*
D31*
X132420000Y-101265000D03*
X132420000Y-101665000D03*
X132420000Y-102065000D03*
X132420000Y-102465000D03*
X132420000Y-102865000D03*
X132420000Y-103265000D03*
X132420000Y-103665000D03*
X132420000Y-104065000D03*
X132420000Y-104465000D03*
X132420000Y-104865000D03*
X132420000Y-105265000D03*
X132420000Y-105665000D03*
D30*
X133170000Y-106415000D03*
X133570000Y-106415000D03*
X133970000Y-106415000D03*
X134370000Y-106415000D03*
X134770000Y-106415000D03*
X135170000Y-106415000D03*
X135570000Y-106415000D03*
X135970000Y-106415000D03*
X136370000Y-106415000D03*
X136770000Y-106415000D03*
X137170000Y-106415000D03*
X137570000Y-106415000D03*
D31*
X138320000Y-105665000D03*
X138320000Y-105265000D03*
X138320000Y-104865000D03*
X138320000Y-104465000D03*
X138320000Y-104065000D03*
X138320000Y-103665000D03*
X138320000Y-103265000D03*
X138320000Y-102865000D03*
X138320000Y-102465000D03*
X138320000Y-102065000D03*
X138320000Y-101665000D03*
X138320000Y-101265000D03*
%TD*%
D32*
%TO.C,U1*%
X121225000Y-90425000D03*
X121225000Y-88525000D03*
X123500000Y-88525000D03*
X123500000Y-89475000D03*
X123500000Y-90425000D03*
%TD*%
D33*
%TO.C,U3*%
X132045000Y-85665000D03*
X132045000Y-85015000D03*
X132045000Y-84365000D03*
X132045000Y-83715000D03*
X132045000Y-83065000D03*
X132045000Y-82415000D03*
X132045000Y-81765000D03*
X132045000Y-81115000D03*
X132045000Y-80465000D03*
X132045000Y-79815000D03*
X132045000Y-79165000D03*
X132045000Y-78515000D03*
X137770000Y-78515000D03*
X137770000Y-79165000D03*
X137770000Y-79815000D03*
X137770000Y-80465000D03*
X137770000Y-81115000D03*
X137770000Y-81765000D03*
X137770000Y-82415000D03*
X137770000Y-83065000D03*
X137770000Y-83715000D03*
X137770000Y-84365000D03*
X137770000Y-85015000D03*
X137770000Y-85665000D03*
D34*
X134907500Y-80920000D03*
X134907500Y-83260000D03*
%TD*%
D16*
%TO.C,C4*%
X127500000Y-89475000D03*
X127500000Y-87575000D03*
%TD*%
%TO.C,C2*%
X127500000Y-76975000D03*
X127500000Y-75075000D03*
%TD*%
%TO.C,C3*%
X118000000Y-88575000D03*
X118000000Y-90475000D03*
%TD*%
D14*
%TO.C,C1*%
X114975000Y-93025000D03*
X112025000Y-93025000D03*
%TD*%
D18*
%TO.C,C6*%
X134790000Y-96435000D03*
X136690000Y-96435000D03*
%TD*%
%TO.C,C5*%
X130840000Y-96465000D03*
X132740000Y-96465000D03*
%TD*%
D35*
%TO.C,C7*%
X128820000Y-100615000D03*
X128820000Y-98715000D03*
%TD*%
%TO.C,C8*%
X128820000Y-104115000D03*
X128820000Y-102215000D03*
%TD*%
D10*
%TO.C,C9*%
X143252500Y-100465000D03*
X141352500Y-100465000D03*
%TD*%
D36*
%TO.C,C10*%
X132645000Y-90952500D03*
X137720000Y-90952500D03*
%TD*%
M02*
