M48
; DRILL file {KiCad 9.0.5} date 2026-07-29T03:31:50-0500
; FORMAT={-:-/ absolute / metric / decimal}
; #@! TF.CreationDate,2026-07-29T03:31:50-05:00
; #@! TF.GenerationSoftware,Kicad,Pcbnew,9.0.5
; #@! TF.FileFunction,Plated,1,2,PTH
FMAT,2
METRIC
; #@! TA.AperFunction,Plated,PTH,ViaDrill
T1C0.300
; #@! TA.AperFunction,Plated,PTH,ComponentDrill
T2C0.600
; #@! TA.AperFunction,Plated,PTH,ComponentDrill
T3C1.000
; #@! TA.AperFunction,Plated,PTH,ComponentDrill
T4C1.700
%
G90
G05
T1
X114.82Y-83.665
X115.82Y-87.165
X123.82Y-106.665
X124.82Y-85.665
X124.82Y-95.665
X125.82Y-87.665
X126.32Y-93.165
X126.389Y-98.566
X127.32Y-104.665
X127.703Y-105.427
X128.32Y-92.165
X128.33Y-97.46
X128.495Y-106.352
X128.719Y-90.256
X128.776Y-105.418
X128.82Y-79.665
X129.154Y-97.25
X129.34Y-106.494
X129.593Y-95.807
X129.667Y-85.842
X129.91Y-82.38
X130.0Y-105.969
X130.293Y-79.479
X130.311Y-83.851
X130.32Y-81.165
X130.32Y-84.665
X130.366Y-102.77
X130.413Y-80.32
X130.746Y-103.705
X130.886Y-104.492
X131.0Y-100.0
X131.099Y-102.447
X131.5Y-106.113
X131.615Y-100.512
X132.022Y-98.071
X132.071Y-98.894
X134.737Y-97.682
X134.883Y-107.535
X135.538Y-97.666
X135.82Y-74.165
X136.0Y-107.5
X136.5Y-109.5
X136.5Y-110.5
X136.755Y-98.985
X137.492Y-98.562
X138.82Y-97.665
X139.231Y-101.515
X139.29Y-103.869
X139.32Y-85.165
X139.32Y-104.668
X139.82Y-80.165
X139.82Y-105.665
X139.82Y-107.165
X139.869Y-97.086
X139.9Y-102.645
X140.0Y-103.5
X140.5Y-95.5
X141.605Y-107.03
X142.32Y-104.165
X144.087Y-95.851
X144.32Y-99.665
X144.32Y-105.665
X144.82Y-98.165
X144.82Y-101.165
X146.82Y-107.165
X149.82Y-107.165
X155.0Y-94.0
X155.0Y-95.0
X155.5Y-102.0
X155.5Y-104.5
X156.988Y-93.885
X157.004Y-94.685
X160.5Y-103.0
X161.5Y-88.5
X162.5Y-103.5
X163.5Y-89.0
T3
X115.82Y-102.625
X115.82Y-105.165
X115.82Y-107.705
X115.82Y-110.245
X123.0Y-74.525
X123.0Y-77.065
X125.2Y-109.465
X127.74Y-109.465
X130.28Y-109.465
X132.82Y-109.465
X139.76Y-109.465
X142.3Y-109.465
X144.84Y-109.465
X147.38Y-109.465
X149.92Y-109.465
X152.46Y-109.465
X158.0Y-99.0
X158.0Y-101.54
X158.0Y-104.08
X158.0Y-106.62
X158.5Y-84.42
X158.5Y-86.96
X158.5Y-89.5
X158.5Y-92.04
T4
X147.36Y-76.665
X147.86Y-88.165
X151.32Y-76.665
X151.82Y-88.165
T2
G00X113.22Y-73.525
M15
G01X112.42Y-73.525
M16
G05
G00X113.22Y-82.165
M15
G01X112.42Y-82.165
M16
G05
G00X117.55Y-73.525
M15
G01X116.45Y-73.525
M16
G05
G00X117.55Y-82.165
M15
G01X116.45Y-82.165
M16
G05
M30
